<?xml version="1.0" encoding="UTF-8"?>
<svg xmlns="http://www.w3.org/2000/svg" viewBox="0 0 24 24" width="24" height="24" fill="none" stroke="currentColor" stroke-width="2" stroke-linecap="round" stroke-linejoin="round">
  <path d="M3 5v2c0 1.1.9 2 2 2h4a2 2 0 0 0 2-2V5a2 2 0 0 0-2-2H5a2 2 0 0 0-2 2z"/>
  <path d="M21 5v2c0 1.1-.9 2-2 2h-4a2 2 0 0 1-2-2V5a2 2 0 0 1 2-2h4a2 2 0 0 1 2 2z"/>
  <path d="M12 14v3"/>
  <path d="M12 14c1.1 0 2-.9 2-2V9H9l-2 3c0 1.1.9 2 2 2h3z"/>
  <path d="M14 17h-4"/>
</svg> 